<?xml version="1.0" encoding="UTF-8" standalone="no"?>
<!DOCTYPE svg PUBLIC "-//W3C//DTD SVG 1.1//EN" "http://www.w3.org/Graphics/SVG/1.1/DTD/svg11.dtd">
<svg width="100%" height="100%" viewBox="0 0 16 16" version="1.1" xmlns="http://www.w3.org/2000/svg" xmlns:xlink="http://www.w3.org/1999/xlink" xml:space="preserve" xmlns:serif="http://www.serif.com/" style="fill-rule:evenodd;clip-rule:evenodd;stroke-linecap:round;stroke-linejoin:round;stroke-miterlimit:1.5;">
    <g id="Background" transform="matrix(1.14286,0,0,1.14286,-1.14286,-1.14286)">
        <path d="M15,3.631C15,2.178 13.822,1 12.369,1C9.872,1 6.141,1 3.642,1C2.183,1 1,2.183 1,3.642C1,6.137 1,9.859 1,12.355C1,13.056 1.279,13.729 1.775,14.225C2.271,14.721 2.944,15 3.645,15C6.15,15 9.888,15 12.383,15C13.828,15 15,13.828 15,12.383C15,9.883 15,6.136 15,3.631Z" style="fill:rgb(0,120,215);"/>
    </g>
    <g id="Background1" serif:id="Background" transform="matrix(1.14286,0,0,1.14286,-1.14286,-1.14286)">
        <clipPath id="_clip1">
            <path d="M10.188,1.875C8.019,1.875 6.25,3.644 6.25,5.813C6.25,6.379 6.441,6.889 6.658,7.378L2.878,11.16C2.796,11.242 2.75,11.353 2.75,11.469L2.75,13.688C2.75,13.929 8.037,19.216 8.279,19.216L10.904,19.216C11.145,19.216 11.341,19.02 11.341,18.779L11.341,17.466L12.654,17.466C12.895,17.466 13.091,17.27 13.091,17.029L13.091,15.46L13.988,14.563C14.399,14.708 14.819,14.841 15.279,14.841C17.447,14.841 19.216,13.072 19.216,10.904C19.216,8.735 12.356,1.875 10.188,1.875Z" clip-rule="nonzero"/>
        </clipPath>
        <g clip-path="url(#_clip1)">
            <path d="M15,3.631C15,2.178 13.822,1 12.369,1C9.872,1 6.141,1 3.642,1C2.183,1 1,2.183 1,3.642C1,6.137 1,9.859 1,12.355C1,13.056 1.279,13.729 1.775,14.225C2.271,14.721 2.944,15 3.645,15C6.15,15 9.888,15 12.383,15C13.828,15 15,13.828 15,12.383C15,9.883 15,6.136 15,3.631Z" style="fill-opacity:0.6;"/>
        </g>
    </g>
    <g id="Key">
        <g transform="matrix(1,0,0,1,-0.5,0.5)">
            <path d="M6,14L3,14L3,11.464L7.51,6.954L7.51,6.954C7.185,6.376 7,5.709 7,5C7,2.792 8.792,1 11,1C13.208,1 15,2.792 15,5C15,7.208 13.208,9 11,9C10.413,9 9.856,8.873 9.354,8.646L9.354,8.646L8,10L8,12L6,12L6,14Z" style="fill:rgb(0,120,215);stroke:white;stroke-width:1px;"/>
        </g>
        <g transform="matrix(1,0,0,1,-0.5,0.5)">
            <path d="M9,5L13,5" style="fill:rgb(0,120,215);stroke:white;stroke-width:1px;"/>
        </g>
        <g transform="matrix(1,0,0,1,-0.5,0.5)">
            <path d="M11,3L11,7" style="fill:rgb(0,120,215);stroke:white;stroke-width:1px;"/>
        </g>
    </g>
</svg>
